<svg width="18" height="18" viewBox="0 0 18 18" fill="none" xmlns="http://www.w3.org/2000/svg">
    <path d="M16.42 0.239999H1.6C1.24 0.239999 0.933333 0.366666 0.68 0.619999C0.426667 0.859999 0.3 1.15333 0.3 1.5V16.5C0.3 16.8467 0.426667 17.14 0.68 17.38C0.933333 17.6333 1.24 17.76 1.6 17.76H16.42C16.7667 17.76 17.0667 17.6333 17.32 17.38C17.5733 17.14 17.7 16.8467 17.7 16.5V1.5C17.7 1.15333 17.5733 0.859999 17.32 0.619999C17.0667 0.366666 16.7667 0.239999 16.42 0.239999ZM5.58 14.9H2.96V7H5.58V14.9ZM4.26 5.92H4.24C3.81333 5.92 3.46667 5.79333 3.2 5.54C2.93333 5.27333 2.8 4.94667 2.8 4.56C2.8 4.16 2.93333 3.83333 3.2 3.58C3.48 3.31333 3.84 3.18 4.28 3.18C4.72 3.18 5.07333 3.31333 5.34 3.58C5.60667 3.83333 5.74 4.16 5.74 4.56C5.74 4.94667 5.60667 5.27333 5.34 5.54C5.07333 5.79333 4.71333 5.92 4.26 5.92ZM15.04 14.9H12.42V10.66C12.42 10.1 12.32 9.67333 12.12 9.38C11.8933 9.04667 11.5533 8.88 11.1 8.88C10.7667 8.88 10.4733 8.98 10.22 9.18C10.02 9.35333 9.86 9.57333 9.74 9.84C9.68667 10 9.66 10.2133 9.66 10.48V14.9H7.04V11.22C7.05333 8.71333 7.05333 7.30667 7.04 7H9.66V8.12C10.2067 7.25333 10.9933 6.82 12.02 6.82C12.9267 6.82 13.6467 7.10667 14.18 7.68C14.7533 8.30667 15.04 9.2 15.04 10.36V14.9Z" fill="#F7F6F6"/>
</svg>