<svg xmlns="http://www.w3.org/2000/svg" viewBox="0 0 100.47 30">
    <defs>
        <style>.logo-footer-color {
            fill: #fff;
            }
        </style>
    </defs>
    <title>Grette</title>
    <path class="logo-footer-color"
          d="M26.89,25.83C25,27.09,21.69,30,15.32,30,6,30,0,23.39,0,15S6.06,0,16,0A30.4,30.4,0,0,1,26.06,1.89l.79,6.42-.35.12C22.76,3,19.84.79,15.63.79,8.39.79,5,7,5,15S8,29.21,15.32,29.21c4.29,0,7.24-2.13,7.24-6.26a10.74,10.74,0,0,0-1.81-6.54v-.08h7.72v.08c-1.3,2.44-1.57,3.78-1.57,7Z"></path>
    <path class="logo-footer-color"
          d="M30.82,29.41v-.08c.75-2.2.91-4.06.91-7.56V17.13A7,7,0,0,0,30,12v-.08L35.5,9.84v4.8h.16c1.57-1.89,3.7-4.61,6.26-4.61l-.08,4.8h-.16a7.3,7.3,0,0,0-3.5-1.18,3.75,3.75,0,0,0-2.52,1.77v6.3c0,3.43.08,5.43.87,7.6v.08Z"></path>
    <path class="logo-footer-color"
          d="M59.32,24.17A8,8,0,0,1,51.53,30c-5.24,0-8.86-4.13-8.86-9.65,0-6.3,4.76-10.31,9.09-10.31a7.65,7.65,0,0,1,7.52,7.68H46.64v.75c0,5.55,2.76,8.19,6.89,8.19A6.76,6.76,0,0,0,59.09,24Zm-12.6-7.09,8.54-.2v-.43c0-3.94-1.18-5.71-3.66-5.71C48.61,10.75,47,13.5,46.72,17.09Z"></path>
    <path class="logo-footer-color"
          d="M62.12,25.24V11.34H60V11.1L65.7,6.18h.39v4.45h5.08v.71H66.09V25.12C66.09,27,67,28,68.85,28a5.39,5.39,0,0,0,2.6-.67l.12.16a6,6,0,0,1-5,2.48C64.17,30,62.12,28.94,62.12,25.24Z"></path>
    <path class="logo-footer-color"
          d="M74.44,25.24V11.34H72.32V11.1L78,6.18h.39v4.45H83.5v.71H78.42V25.12c0,1.93.91,2.91,2.76,2.91a5.39,5.39,0,0,0,2.6-.67l.12.16a6,6,0,0,1-5,2.48C76.49,30,74.44,28.94,74.44,25.24Z"></path>
    <path class="logo-footer-color"
          d="M100.47,24.17A8,8,0,0,1,92.67,30c-5.24,0-8.86-4.13-8.86-9.65,0-6.3,4.76-10.31,9.09-10.31a7.65,7.65,0,0,1,7.52,7.68H87.79v.75c0,5.55,2.76,8.19,6.89,8.19A6.76,6.76,0,0,0,100.23,24Zm-12.6-7.09,8.54-.2v-.43c0-3.94-1.18-5.71-3.66-5.71C89.76,10.75,88.18,13.5,87.87,17.09Z"></path>
</svg>