<svg width="18" height="18" viewBox="0 0 18 18" fill="none" xmlns="http://www.w3.org/2000/svg">
    <path d="M9 0.259999C7.41333 0.259999 5.94 0.659999 4.58 1.46C3.26 2.22 2.22 3.26 1.46 4.58C0.66 5.94 0.26 7.41333 0.26 9C0.26 10.5867 0.66 12.06 1.46 13.42C2.22 14.74 3.26 15.7867 4.58 16.56C5.94 17.36 7.41333 17.76 9 17.76C10.5867 17.76 12.06 17.36 13.42 16.56C14.74 15.7867 15.7867 14.74 16.56 13.42C17.36 12.06 17.76 10.5867 17.76 9C17.76 7.41333 17.36 5.94 16.56 4.58C15.7867 3.26 14.74 2.22 13.42 1.46C12.06 0.659999 10.5867 0.259999 9 0.259999ZM13.02 12.86C12.94 12.9933 12.8267 13.08 12.68 13.12C12.5333 13.1467 12.3933 13.1267 12.26 13.06C10.22 11.7933 7.66 11.5067 4.58 12.2C4.43333 12.24 4.29333 12.22 4.16 12.14C4.04 12.06 3.96 11.9467 3.92 11.8C3.89333 11.6533 3.92 11.52 4 11.4C4.08 11.2667 4.19333 11.18 4.34 11.14C7.67333 10.38 10.5067 10.7067 12.84 12.12C12.9733 12.2 13.0533 12.3133 13.08 12.46C13.12 12.6067 13.1 12.74 13.02 12.86ZM14.08 10.48C13.9867 10.64 13.8467 10.7467 13.66 10.8C13.4733 10.84 13.3 10.8133 13.14 10.72C12.3667 10.24 11.4733 9.87333 10.46 9.62C9.46 9.36667 8.43333 9.24667 7.38 9.26C6.32667 9.27333 5.34 9.42 4.42 9.7C4.23333 9.75333 4.06 9.73333 3.9 9.64C3.74 9.54667 3.63333 9.41333 3.58 9.24C3.52667 9.06667 3.54 8.9 3.62 8.74C3.7 8.56667 3.83333 8.44667 4.02 8.38C5.07333 8.06 6.18667 7.89333 7.36 7.88C8.54667 7.86667 9.7 8.00667 10.82 8.3C11.9533 8.58 12.9667 8.99333 13.86 9.54C14.02 9.64667 14.12 9.79333 14.16 9.98C14.2 10.1533 14.1733 10.32 14.08 10.48ZM14.18 8C13.2867 7.46667 12.1867 7.07333 10.88 6.82C9.69333 6.58 8.47333 6.48 7.22 6.52C5.99333 6.56 4.92667 6.72 4.02 7C3.79333 7.06667 3.58 7.04667 3.38 6.94C3.18 6.82 3.04667 6.65333 2.98 6.44C2.92667 6.22667 2.95333 6.02 3.06 5.82C3.16667 5.62 3.32667 5.48667 3.54 5.42C4.59333 5.1 5.8 4.92667 7.16 4.9C8.57333 4.84667 9.94667 4.96 11.28 5.24C12.7333 5.53333 13.98 5.98667 15.02 6.6C15.2067 6.70667 15.3267 6.87333 15.38 7.1C15.4333 7.32667 15.4067 7.53333 15.3 7.72C15.1933 7.90667 15.0267 8.03333 14.8 8.1C14.5733 8.15333 14.3667 8.12 14.18 8Z" fill="#F7F6F6"/>
</svg>