<svg viewBox="0 0 100 100" preserveAspectRatio="none" class="svg-pattern" shape-rendering="crispEdges" xmlns="http://www.w3.org/2000/svg" xmlns:xlink="http://www.w3.org/1999/xlink"><g data-employee-id="884" data-lawyer="true" style="mix-blend-mode: multiply"><rect x="0" y="0" width="4.1666666666667" height="100" style="fill: rgb(0,0,0); fill-opacity: 1"></rect><rect x="4.1666666666667" y="0" width="4.1666666666667" height="100" style="fill: rgb(0,0,0); fill-opacity: 0.8"></rect><rect x="8.3333333333333" y="0" width="4.1666666666667" height="100" style="fill: rgb(0,0,0); fill-opacity: 0.4"></rect><rect x="12.5" y="0" width="4.1666666666667" height="100" style="fill: rgb(0,0,0); fill-opacity: 0.26666666666667"></rect><rect x="16.666666666667" y="0" width="4.1666666666667" height="100" style="fill: rgb(0,0,0); fill-opacity: 0.2"></rect><rect x="20.833333333333" y="0" width="4.1666666666667" height="100" style="fill: rgb(0,0,0); fill-opacity: 0.16"></rect><rect x="25" y="0" width="4.1666666666667" height="100" style="fill: rgb(0,0,0); fill-opacity: 0.13333333333333"></rect><rect x="29.166666666667" y="0" width="4.1666666666667" height="100" style="fill: rgb(0,0,0); fill-opacity: 0.11428571428571"></rect><rect x="33.333333333333" y="0" width="4.1666666666667" height="100" style="fill: rgb(0,0,0); fill-opacity: 0.1"></rect><rect x="37.5" y="0" width="4.1666666666667" height="100" style="fill: rgb(0,0,0); fill-opacity: 0.088888888888889"></rect><rect x="41.666666666667" y="0" width="4.1666666666667" height="100" style="fill: rgb(0,0,0); fill-opacity: 0.08"></rect><rect x="45.833333333333" y="0" width="4.1666666666667" height="100" style="fill: rgb(0,0,0); fill-opacity: 0.072727272727273"></rect><rect x="50" y="0" width="4.1666666666667" height="100" style="fill: rgb(0,0,0); fill-opacity: 0.066666666666667"></rect><rect x="54.166666666667" y="0" width="4.1666666666667" height="100" style="fill: rgb(0,0,0); fill-opacity: 0.061538461538462"></rect><rect x="58.333333333333" y="0" width="4.1666666666667" height="100" style="fill: rgb(0,0,0); fill-opacity: 0.057142857142857"></rect><rect x="62.5" y="0" width="4.1666666666667" height="100" style="fill: rgb(0,0,0); fill-opacity: 0.053333333333333"></rect><rect x="66.666666666667" y="0" width="4.1666666666667" height="100" style="fill: rgb(0,0,0); fill-opacity: 0.05"></rect><rect x="70.833333333333" y="0" width="4.1666666666667" height="100" style="fill: rgb(0,0,0); fill-opacity: 0.047058823529412"></rect><rect x="75" y="0" width="4.1666666666667" height="100" style="fill: rgb(0,0,0); fill-opacity: 0.044444444444444"></rect><rect x="79.166666666667" y="0" width="4.1666666666667" height="100" style="fill: rgb(0,0,0); fill-opacity: 0.042105263157895"></rect><rect x="83.333333333333" y="0" width="4.1666666666667" height="100" style="fill: rgb(0,0,0); fill-opacity: 0.04"></rect><rect x="87.5" y="0" width="4.1666666666667" height="100" style="fill: rgb(0,0,0); fill-opacity: 0.038095238095238"></rect><rect x="91.666666666667" y="0" width="4.1666666666667" height="100" style="fill: rgb(0,0,0); fill-opacity: 0.036363636363636"></rect><rect x="95.833333333333" y="0" width="4.1666666666667" height="100" style="fill: rgb(0,0,0); fill-opacity: 0.034782608695652"></rect></g></svg>